HIERARCHY
ROOT Hips
{
  OFFSET 90.7885 88.945 -76.2838
  CHANNELS 6 Xposition Yposition Zposition Zrotation Xrotation Yrotation
  JOINT LeftUpLeg
  {
    OFFSET 8.64259 1.95398 -2.38835
    CHANNELS 3 Zrotation Xrotation Yrotation
    JOINT LeftLeg
    {
      OFFSET 43.7702 0 0
      CHANNELS 3 Zrotation Xrotation Yrotation
      JOINT LeftFoot
      {
        OFFSET 40.6238 0 0
        CHANNELS 3 Zrotation Xrotation Yrotation
        JOINT LeftToeBase
        {
          OFFSET 12.7242 0 0
          CHANNELS 3 Zrotation Xrotation Yrotation
          End Site
          {
            OFFSET 0 0 0
          }
        }
      }
    }
  }
  JOINT RightUpLeg
  {
    OFFSET -8.2249 1.95398 -2.59336
    CHANNELS 3 Zrotation Xrotation Yrotation
    JOINT RightLeg
    {
      OFFSET 43.5653 0 0
      CHANNELS 3 Zrotation Xrotation Yrotation
      JOINT RightFoot
      {
        OFFSET 40.6238 0 0
        CHANNELS 3 Zrotation Xrotation Yrotation
        JOINT RightToeBase
        {
          OFFSET 12.7242 0 0
          CHANNELS 3 Zrotation Xrotation Yrotation
          End Site
          {
            OFFSET 0 0 0
          }
        }
      }
    }
  }
  JOINT Spine
  {
    OFFSET 0.165834 0.87714 6.61349
    CHANNELS 3 Zrotation Xrotation Yrotation
    JOINT Spine1
    {
      OFFSET 7.38963 1.71661e-005 0
      CHANNELS 3 Zrotation Xrotation Yrotation
      JOINT Spine2
      {
        OFFSET 11.9445 1.14441e-005 0
        CHANNELS 3 Zrotation Xrotation Yrotation
        JOINT Spine3
        {
          OFFSET 14.7254 4.19617e-005 0
          CHANNELS 3 Zrotation Xrotation Yrotation
          JOINT Spine4
          {
            OFFSET 10.9679 0 0
            CHANNELS 3 Zrotation Xrotation Yrotation
            JOINT RightShoulder
            {
              OFFSET 2.46616 -1.6653 3.69651
              CHANNELS 3 Zrotation Xrotation Yrotation
              JOINT RightArm
              {
                OFFSET 13.0012 0 0
                CHANNELS 3 Zrotation Xrotation Yrotation
                JOINT RightForeArm
                {
                  OFFSET 28.7848 1.52588e-005 0
                  CHANNELS 3 Zrotation Xrotation Yrotation
                  JOINT RightHand
                  {
                    OFFSET 26.5688 1.52588e-005 0
                    CHANNELS 3 Zrotation Xrotation Yrotation
                    End Site
                    {
                      OFFSET 0 0 0
                    }
                  }
                }
              }
            }
            JOINT LeftShoulder
            {
              OFFSET 2.38034 -1.29275 -3.7523
              CHANNELS 3 Zrotation Xrotation Yrotation
              JOINT LeftArm
              {
                OFFSET 16.3182 6.10352e-005 0
                CHANNELS 3 Zrotation Xrotation Yrotation
                JOINT LeftForeArm
                {
                  OFFSET 27.0901 0 0
                  CHANNELS 3 Zrotation Xrotation Yrotation
                  JOINT LeftHand
                  {
                    OFFSET 24.5451 1.52588e-005 0
                    CHANNELS 3 Zrotation Xrotation Yrotation
                    End Site
                    {
                      OFFSET 0 0 0
                    }
                  }
                }
              }
            }
            JOINT Neck
            {
              OFFSET 5.0226 -0.0266342 0
              CHANNELS 3 Zrotation Xrotation Yrotation
              JOINT Head
              {
                OFFSET 6.69363 2.86102e-005 0
                CHANNELS 3 Zrotation Xrotation Yrotation
                End Site
                {
                  OFFSET 0 0 0
                }
              }
            }
          }
        }
      }
    }
  }
}
MOTION
Frames:	6
Frame Time:	0.0416667
35.2645 99.8804 17.7429 -161.07 -80.9508 -163.413 -179.056 -7.58984 88.4986 -7.17317 -5.7757 1.60534 68.282 3.50174 -3.80783 17.3782 -4.85588 7.64863 167.035 -3.82644 82.6831 -12.0148 -8.99472 -0.426304 67.1755 -3.50601 2.5377 24.84 -1.39565 3.87017 0.373061 7.38736 -89.8819 12.0988 0.797454 0.14781 0.428099 0.803192 0.112562 -22.1086 0.716162 0.38066 -2.096 0.716166 0.380659 88.1391 -28.2223 -111.219 22.6486 6.33714 -21.4482 2.83594 -1.8086 -54.6143 -4.99722 1.01891 -26.7075 -89.1676 -50.9606 80.1646 -3.11 12.9761 -35.6895 -31.6599 -29.5838 -62.6762 -7.71139 0.00955026 -6.51623 0.372777 -1.62731 -3.50536 -8.71681 -1.199 1.46895 
34.9561 99.8928 17.8087 -164.315 -81.579 -165.924 -178.088 -6.43075 89.9489 -8.60876 -4.50169 1.08935 68.7475 3.44932 -4.19836 15.3917 -3.95801 6.66532 167.813 -4.28817 83.956 -10.7923 -8.59785 -0.445188 65.7984 -3.03009 1.71591 25.6138 -1.57864 4.16506 0.29553 7.32483 -90.0068 12.2244 0.58422 -0.078941 0.553577 0.580177 -0.104584 -21.9826 0.58093 0.100298 -1.96995 0.580931 0.100292 88.5313 -27.2934 -110.851 23.2655 5.8985 -21.63 2.98849 -1.46848 -54.5835 -4.49312 0.944551 -26.6903 -89.0856 -51.8371 80.4562 -3.70078 12.6353 -36.2517 -30.949 -30.5182 -61.3185 -9.74582 0.120419 -7.61015 0.13761 -1.48559 -3.06673 -8.53961 -1.15415 1.96767 
34.9451 99.9239 17.9417 -164.483 -81.4258 -165.943 -177.902 -6.79274 90.1674 -8.35657 -3.96983 0.981859 68.6192 3.43281 -4.00649 15.7336 -4.92656 7.78879 167.744 -4.59341 84.0396 -10.9123 -8.57436 -0.351918 66.1838 -3.1895 1.34863 24.6509 -1.61133 4.35749 0.300823 7.34448 -90.0232 12.1849 0.586987 -0.111655 0.514089 0.581504 -0.137387 -22.0221 0.593401 0.0699303 -2.00948 0.593405 0.0699289 88.451 -27.401 -110.966 23.2137 6.03634 -21.5528 2.71808 -1.7678 -54.5685 -4.38807 0.902925 -26.8435 -89.0739 -51.7967 80.4655 -3.59108 11.9976 -36.3074 -29.2324 -29.7746 -60.2456 -9.66478 0.038693 -6.33459 0.212803 -1.49913 -3.03647 -8.7557 -1.15378 1.63431 
34.9539 99.9216 18.0173 -164.875 -81.4617 -166.322 -177.96 -6.77105 90.1038 -8.46357 -3.81654 1.05508 68.5854 3.41549 -3.75462 16.0927 -5.03202 7.90161 167.751 -4.6248 84.0405 -10.9077 -8.50416 -0.356688 66.3452 -3.26481 1.07919 24.3624 -1.92547 5.06632 0.299093 7.34643 -90.0408 12.19 0.575199 -0.145478 0.51915 0.568236 -0.170657 -22.017 0.592322 0.0341303 -2.00437 0.592322 0.0341189 88.5214 -27.1319 -110.946 23.4496 6.10814 -21.5148 2.96878 -1.49173 -54.366 -4.88681 1.01438 -26.5995 -89.116 -52.1143 80.465 -3.28622 12.0891 -36.4188 -29.4395 -30.0004 -60.1811 -8.9453 0.00661704 -5.99704 0.142466 -1.46031 -2.58449 -8.61666 -1.15833 1.27642 
34.9323 99.9047 18.0607 -164.918 -81.559 -166.271 -178.06 -6.6111 90.095 -8.66614 -3.97069 1.2275 68.8906 3.47562 -3.79948 15.6472 -5.11772 8.01576 167.9 -4.89405 84.2092 -10.1888 -8.31021 -0.423109 65.9305 -3.1528 1.69077 25.0967 -1.48995 4.03955 0.327271 7.34289 -90.0498 12.1887 0.626965 -0.169216 0.517884 0.618912 -0.196661 -22.0185 0.648834 0.0270428 -2.00585 0.648832 0.0270359 88.6589 -27.388 -110.548 23.1896 6.07608 -21.5928 2.94081 -1.80461 -54.4692 -4.58422 0.955373 -26.9984 -89.2174 -51.9409 80.2831 -2.97593 12.305 -36.663 -29.7953 -30.1816 -60.2509 -8.11994 -0.0275896 -5.62328 0.611505 -1.63219 -2.74688 -9.21477 -1.29494 1.18343 
34.9305 99.9114 18.1298 -164.972 -81.5989 -166.338 -177.927 -6.58262 90.2171 -8.72364 -4.0762 1.07418 68.8807 3.45319 -4.16217 15.7177 -4.9598 7.82795 167.91 -4.76573 84.2228 -10.5973 -8.2068 -0.436728 66.3668 -3.30039 1.41691 24.3068 -1.58565 4.34298 0.318821 7.33386 -90.0434 12.2067 0.613197 -0.154978 0.535892 0.605779 -0.18182 -22.0004 0.631417 0.0364808 -1.98778 0.631425 0.0364836 88.553 -27.4495 -110.736 23.1261 6.13545 -21.4981 3.19141 -1.36202 -54.747 -4.22851 0.909239 -26.6417 -89.1488 -52.0755 80.4093 -2.84145 12.2489 -36.6799 -29.9664 -30.2379 -60.3677 -8.26626 -0.0161876 -5.81566 0.40069 -1.63422 -2.88508 -9.0923 -1.29704 1.43591 
